# xmcd
#
# Track frame offsets:
# 150
# 22387
# 46610
# 66552
# 89982
# 109912
# 134762
# 158072
# 184937
# 203115
# 219395
# 237762
# 261610
# 280587
# 303705
# 332215
#
# Disc length: 4739 seconds
#
#
# Revision: 8
# Processed by: cddbd v1.5.1PL0 Copyright (c) Steve Scherf et al.
# Submitted via: FreeRIP 2.931 
#
DISCID=04128110
DTITLE=Aerosmith - Big Ones
DYEAR=1994
DGENRE=Hard Rock
TTITLE0=Walk On Water
TTITLE1=Love In An Elevator
TTITLE2=Rag Doll
TTITLE3=What It Takes
TTITLE4=Dude (Looks Like A Lady)
TTITLE5=Janie's Got A Gun
TTITLE6=Cryin'
TTITLE7=Amazing
TTITLE8=Blind Man
TTITLE9=Deuces Are Wild
TTITLE10=The Other Side
TTITLE11=Crazy
TTITLE12=Eat The Rich
TTITLE13=Angel
TTITLE14=Livin' On The Edge
TTITLE15=Dude (Looks Like A Lady) - Live
EXTD=
EXTT0=
EXTT1=
EXTT2=
EXTT3=
EXTT4=
EXTT5=
EXTT6=
EXTT7=
EXTT8=
EXTT9=
EXTT10=
EXTT11=
EXTT12=
EXTT13=
EXTT14=
EXTT15=
PLAYORDER=
